<?xml version="1.0" encoding="UTF-8"?>
<svg version="1.1" xmlns="http://www.w3.org/2000/svg" width="512" height="512">
<path d="M0 0 C4.61946352 3.71133178 8.83939569 7.78717053 13 12 C13.68707031 12.68835938 14.37414062 13.37671875 15.08203125 14.0859375 C33.01720102 33.2761643 38.72677117 58.22204983 38.390625 83.6015625 C38.38313594 85.30218835 38.37745568 87.00282301 38.37347412 88.70346069 C38.35842687 93.11264187 38.3193345 97.52126968 38.2746582 101.93023682 C38.23324541 106.45601929 38.21536638 110.98189392 38.1953125 115.5078125 C38.15281251 124.33879156 38.08482617 133.16932636 38 142 C38.65877136 141.99181747 39.31754272 141.98363495 39.99627686 141.97520447 C43.01311873 141.94250198 46.02992314 141.92232734 49.046875 141.90234375 C50.08312012 141.88925171 51.11936523 141.87615967 52.18701172 141.8626709 C67.24218093 141.78793316 78.81435556 146.92026335 89.8125 157.3125 C98.56644087 166.5822981 104.19087687 178.08774148 104 191 C104.84426953 190.99446924 104.84426953 190.99446924 105.70559502 190.98882675 C119.43690077 190.90027028 133.16815611 190.83444675 146.89968681 190.79275131 C153.54035954 190.7719073 160.18073504 190.74364769 166.82128906 190.69824219 C173.23388822 190.65467146 179.64628901 190.63083887 186.05902481 190.62049103 C188.50136562 190.61311988 190.94369599 190.59872585 193.385952 190.57707977 C196.81596801 190.54789754 200.2451721 190.54405032 203.67529297 190.54589844 C204.67727219 190.53151733 205.6792514 190.51713623 206.71159363 190.50231934 C216.26871238 190.55776973 224.20780268 193.34063794 231.2421875 199.93359375 C237.40636523 207.17992712 239.14449327 214.85271127 239.17700195 224.09814453 C239.18357315 224.91171921 239.19014435 225.72529388 239.19691467 226.56352234 C239.2166068 229.25328675 239.22830299 231.94299534 239.23828125 234.6328125 C239.24235678 235.5544305 239.2464323 236.47604851 239.25063133 237.42559433 C239.27147761 242.30651371 239.28578391 247.18740513 239.29516602 252.06835938 C239.30620965 257.0917949 239.34059006 262.11478495 239.38033772 267.13806343 C239.40657752 271.01588727 239.41486452 274.89360629 239.41844749 278.77151108 C239.42329674 280.62214023 239.43486291 282.47276523 239.45348549 284.32330704 C239.5755735 297.26257853 239.11782922 307.45081388 229.79296875 317.3125 C222.22062667 324.43941019 214.97243957 325.2966971 205.03759766 325.22705078 C203.94432159 325.22734283 202.85104553 325.22763489 201.72463989 325.22793579 C198.12103258 325.22654556 194.51763357 325.21099852 190.9140625 325.1953125 C188.41157138 325.19158129 185.9090788 325.18873483 183.40658569 325.18673706 C177.49936861 325.17988827 171.59221805 325.16413491 165.68503511 325.14403808 C158.29654708 325.11944978 150.90804974 325.10873951 143.51953125 325.09765625 C130.34631641 325.07622121 117.17316292 325.04248102 104 325 C104.02094727 326.23451904 104.04189453 327.46903809 104.06347656 328.7409668 C104.13660757 333.37968054 104.18206215 338.01834478 104.21972656 342.6574707 C104.23967719 344.65430305 104.26684772 346.65107824 104.30175781 348.64770508 C104.62354368 367.54316053 102.2713029 382.65333531 88.97265625 397.12109375 C77.61232862 407.94152462 63.73122023 412.3287806 48.3114624 412.26069641 C46.91098596 412.26643473 46.91098596 412.26643473 45.48221707 412.27228898 C42.37578158 412.28254935 39.26953332 412.27864008 36.16308594 412.2746582 C33.92672048 412.27900858 31.69035652 412.28419282 29.45399475 412.29014587 C23.39391389 412.30351343 17.33389548 412.30411692 11.27380276 412.30158257 C6.20698715 412.30051113 1.14018409 412.30540079 -3.92662883 412.310188 C-16.56901491 412.3219093 -29.21136289 412.32106259 -41.85374841 412.31463119 C-52.80842504 412.309466 -63.76301264 412.32070943 -74.71767166 412.33972941 C-85.98989976 412.3591493 -97.26208701 412.36706563 -108.53433585 412.36360615 C-114.85316562 412.3617971 -121.17191388 412.36439162 -127.49073029 412.37832069 C-133.43665022 412.39093764 -139.38239267 412.38891831 -145.32831001 412.37590981 C-147.50303521 412.37355272 -149.67777305 412.37624735 -151.85248375 412.38453293 C-170.57533804 412.45068853 -184.39656814 410.48307914 -200.25 399.8125 C-211.77768602 388.02282112 -218.10251449 375.12474978 -218.14044189 358.56369019 C-218.14341302 357.83607455 -218.14638414 357.10845892 -218.1494453 356.35879433 C-218.15808524 353.93172997 -218.15963655 351.50471521 -218.16113281 349.07763672 C-218.16576438 347.33269649 -218.1707895 345.58775727 -218.17617798 343.84281921 C-218.18927277 339.10904905 -218.19574142 334.37529306 -218.20018864 329.64150763 C-218.20312455 326.68014303 -218.20723037 323.71878225 -218.21169281 320.75741959 C-218.22536108 311.48081191 -218.23503058 302.20421302 -218.2388947 292.92759597 C-218.24337161 282.24020463 -218.2609053 271.55294142 -218.2898953 260.86558902 C-218.31155667 252.59103635 -218.32160138 244.31651961 -218.32293582 236.0419389 C-218.32398081 231.10638885 -218.32982305 226.17095935 -218.34775543 221.2354393 C-218.36431293 216.58802593 -218.36635458 211.94082275 -218.35761642 207.29339027 C-218.3568501 205.59555941 -218.36113486 203.89771688 -218.37107468 202.19991493 C-218.47105313 184.04593723 -215.16616178 169.72502374 -202.34375 156.21875 C-193.70931695 148.04482005 -181.62408455 141.83542175 -169.578125 141.90234375 C-168.55332031 141.90556641 -167.52851563 141.90878906 -166.47265625 141.91210938 C-165.40917969 141.92048828 -164.34570312 141.92886719 -163.25 141.9375 C-162.17105469 141.94201172 -161.09210938 141.94652344 -159.98046875 141.95117188 C-157.32025617 141.96294273 -154.66015635 141.97938601 -152 142 C-152.00999275 140.64388611 -152.00999275 140.64388611 -152.02018738 139.26037598 C-152.08071229 130.67116062 -152.12618233 122.08201859 -152.15543652 113.49263763 C-152.17098278 109.07849406 -152.19201474 104.6645291 -152.22631836 100.25048828 C-152.25931142 95.97753689 -152.2769356 91.7047555 -152.28463173 87.4316864 C-152.29010458 85.81488881 -152.30078749 84.19809877 -152.31719017 82.58137512 C-152.60212124 53.28794226 -142.97642505 28.4030807 -122.53125 7.47265625 C-89.51023658 -23.88658539 -36.52057669 -26.78836331 0 0 Z M-85.32421875 50.328125 C-93.1230966 59.49649156 -96.13573799 68.9729593 -96.11352539 80.92333984 C-96.11364593 81.59809168 -96.11376646 82.27284351 -96.11389065 82.96804237 C-96.11314972 85.13237536 -96.10555922 87.2966201 -96.09765625 89.4609375 C-96.09618429 90.80509398 -96.09516514 92.14925103 -96.09460449 93.4934082 C-96.08938109 98.4539476 -96.07541982 103.41447468 -96.0625 108.375 C-96.041875 119.47125 -96.02125 130.5675 -96 142 C-70.26 142 -44.52 142 -18 142 C-17.938125 130.65625 -17.87625 119.3125 -17.8125 107.625 C-17.78518799 104.06154785 -17.75787598 100.4980957 -17.72973633 96.82666016 C-17.71969448 93.59355595 -17.71969448 93.59355595 -17.71366882 90.36044312 C-17.70910384 88.93585385 -17.69864065 87.51127516 -17.68327332 86.08676147 C-17.53992568 72.08176487 -19.4375396 60.56778747 -28.96875 49.76953125 C-36.39940218 42.59464428 -45.78644683 38.58886148 -56.0625 37.75 C-67.46637692 38.47405568 -77.1712233 42.16142704 -85.32421875 50.328125 Z " fill="#23A7FD" transform="translate(273,94)"/>
<path d="M0 0 C1.16525133 -0.00445784 2.33050266 -0.00891569 3.53106463 -0.01350862 C4.8121688 -0.01332426 6.09327296 -0.01313989 7.41319847 -0.01294994 C8.78720814 -0.01624979 10.16121685 -0.01997562 11.53522432 -0.02409142 C15.31500791 -0.03410578 19.09477563 -0.03782731 22.87457061 -0.04048073 C26.94971945 -0.04438546 31.02485574 -0.05396368 35.09999657 -0.0626936 C44.94347299 -0.0824532 54.78695043 -0.09252355 64.63044173 -0.10142139 C69.26644652 -0.10580509 73.90245017 -0.11117168 78.53845406 -0.11641026 C93.95047392 -0.13342199 109.36249307 -0.14791607 124.77452087 -0.155159 C128.77373951 -0.15706888 132.77295813 -0.15898921 136.77217674 -0.16094494 C138.26314708 -0.16167055 138.26314708 -0.16167055 139.78423803 -0.16241082 C155.88538106 -0.17071079 171.98644978 -0.1960474 188.08756037 -0.22852562 C204.61981821 -0.26160152 221.15203829 -0.27960824 237.68432939 -0.28280324 C246.96595389 -0.28496783 256.24747003 -0.29370914 265.52906227 -0.31926441 C273.43384069 -0.34097866 281.33848444 -0.34901826 289.24328931 -0.33929763 C293.27494176 -0.33475503 297.30631639 -0.33663666 301.33793068 -0.35605907 C305.03313044 -0.3737067 308.72785001 -0.37268046 312.42305498 -0.35716178 C314.38391003 -0.35366875 316.34477022 -0.3698001 318.30555499 -0.38676625 C328.65326761 -0.31157549 336.88538632 1.87318735 344.56172752 9.06781483 C350.72590525 16.3141482 352.46403329 23.98693234 352.49654198 33.23236561 C352.50311317 34.04594028 352.50968437 34.85951496 352.5164547 35.69774342 C352.53614683 38.38750783 352.54784301 41.07721642 352.55782127 43.76703358 C352.5618968 44.68865158 352.56597233 45.61026958 352.57017136 46.55981541 C352.59101764 51.44073479 352.60532394 56.32162621 352.61470604 61.20258045 C352.62574967 66.22601598 352.66013008 71.24900602 352.69987774 76.27228451 C352.72611755 80.15010834 352.73440454 84.02782736 352.73798752 87.90573215 C352.74283676 89.75636131 352.75440294 91.60698631 352.77302551 93.45752811 C352.89511352 106.3967996 352.43736924 116.58503495 343.11250877 126.44672108 C335.96299388 133.17567627 329.08599895 134.4372487 319.66786766 134.34540272 C318.70199486 134.34413946 317.73612206 134.34287621 316.74098039 134.34157467 C313.50762669 134.335169 310.27451401 134.31463304 307.04121971 134.29437733 C304.72161702 134.28730394 302.40201103 134.2812512 300.08240318 134.27614307 C295.08803277 134.26392174 290.09371905 134.24635134 285.09937859 134.22522449 C277.19898499 134.19374843 269.29866232 134.18576132 261.39821434 134.18353748 C260.05098398 134.1830328 258.70375362 134.18251394 257.35652328 134.18198109 C255.31496424 134.18119371 253.2734052 134.1804221 251.23184614 134.17970991 C243.54085976 134.17693407 235.84987777 134.17147833 228.15889549 134.16302967 C227.10475611 134.16188443 227.10475611 134.16188443 226.02932099 134.16071606 C214.64554262 134.14740618 203.26203262 134.10463594 191.87837324 134.05276954 C180.17789763 134.00033412 168.47779088 133.98617931 156.77721334 134.00564384 C150.21265896 134.01472571 143.64925583 134.00552968 137.08488274 133.95285511 C130.90871239 133.90351731 124.73426333 133.90073769 118.55799866 133.93332958 C116.29489885 133.93699715 114.03169562 133.92362333 111.7688179 133.89170742 C99.72060983 133.20241774 99.72060983 133.20241774 88.83187675 137.32178211 C86.33921995 139.79715668 84.35352098 142.281152 82.31954002 145.13422108 C81.06327381 146.29861919 79.77695541 147.43279319 78.44454002 148.50922108 C72.75669878 153.38614519 67.5794411 158.80613609 62.31954002 164.13422108 C53.97407967 172.58786333 45.45167955 180.52410481 36.31954002 188.13422108 C36.31954002 170.31422108 36.31954002 152.49422108 36.31954002 134.13422108 C23.23158045 134.25250177 23.23158045 134.25250177 10.14400291 134.40448475 C8.48507331 134.41325881 6.82613716 134.42090056 5.16719627 134.42718983 C3.90836632 134.45021168 3.90836632 134.45021168 2.62410545 134.47369862 C-6.68429229 134.4777581 -14.54442776 131.88730352 -21.46170998 125.48578358 C-31.48747146 115.07768373 -31.29486211 102.89707434 -31.24686623 89.32562733 C-31.25211264 87.50921278 -31.25839282 85.69280095 -31.2656498 83.87639332 C-31.27600908 80.08484469 -31.27155732 76.29367241 -31.25687599 72.502141 C-31.23969514 67.67279699 -31.26319827 62.84464367 -31.29836559 58.01543236 C-31.32045497 54.26872019 -31.31887037 50.52228789 -31.31060028 46.77553082 C-31.30978706 44.99634908 -31.3165284 43.21714548 -31.33137131 41.43802547 C-31.41929939 28.99381567 -30.68231296 18.30856015 -21.86795998 8.63422108 C-15.39616665 2.74966041 -8.70567675 0.01545215 0 0 Z " fill="#FEB64D" transform="translate(159.6804599761963,284.86577892303467)"/>
<path d="M0 0 C0.79792969 0.68964844 1.59585937 1.37929688 2.41796875 2.08984375 C13.60336426 11.92374473 23.81743662 22.31155782 32.70898438 34.26904297 C33.95065637 35.93384146 35.21564829 37.57843871 36.484375 39.22265625 C53.63942041 61.86636105 72 95.96417941 72 125 C83.55 125 95.1 125 107 125 C104.98757265 129.0248547 102.55914867 132.03229898 99.625 135.375 C98.53374492 136.63271772 97.44260218 137.89053292 96.3515625 139.1484375 C95.7937207 139.7887793 95.23587891 140.42912109 94.66113281 141.08886719 C92.09129947 144.04545969 89.54619396 147.02305419 87 150 C86.00926272 151.15637693 85.01837651 152.31262628 84.02734375 153.46875 C83.53347168 154.04496094 83.03959961 154.62117187 82.53076172 155.21484375 C80.9391851 157.07092162 79.34663536 158.92616103 77.75390625 160.78125 C76.95243164 161.71517578 76.95243164 161.71517578 76.13476562 162.66796875 C75.12209168 163.84795404 74.10909596 165.02766329 73.09570312 166.20703125 C70.03145668 169.77843392 67.00507274 173.37864192 64 177 C58.65546274 172.79259833 54.55585161 168.17174609 50.3203125 162.859375 C48.12530146 160.1544119 45.8497254 157.57077971 43.5 155 C39.58965797 150.70948583 35.92251168 146.26251447 32.27734375 141.74609375 C29.26064323 138.10846002 26.07296273 134.64424758 22.84765625 131.19140625 C21 129 21 129 19 125 C28.9 125 38.8 125 49 125 C38.36206388 89.20250069 24.52662423 56.27541403 -3 30 C-8 25 -8 25 -9.51171875 23.43115234 C-13.57972007 19.25528735 -17.81645038 15.59086171 -22.5 12.125 C-23.54692017 11.34974976 -23.54692017 11.34974976 -24.61499023 10.55883789 C-65.21753526 -19.07822359 -116.57468638 -32.58562118 -166.46337891 -25.40673828 C-218.66105419 -17.03702442 -264.81783722 9.77947058 -296.0625 52.75 C-317.7964725 83.49111485 -330.70508948 119.77272035 -332.19921875 157.47265625 C-332.23055908 158.19235596 -332.26189941 158.91205566 -332.29418945 159.65356445 C-332.36988598 161.6173291 -332.41646853 163.58215515 -332.4609375 165.546875 C-333.09558102 169.61227264 -334.45321097 171.80467919 -337 175 C-340.63169503 177.3202496 -343.92637053 177.25893217 -348.06640625 176.6171875 C-351.25312706 175.60001197 -352.94992612 173.54706149 -355 171 C-364.10876344 152.78247312 -351.57893897 115.48595072 -345.55810547 97.33813477 C-326.58689226 42.30246438 -287.96367834 -2.74269766 -235.921875 -29.1328125 C-160.14916034 -66.00470506 -63.82332819 -56.52923354 0 0 Z " fill="#FFB74C" transform="translate(356,57)"/>
<path d="M0 0 C1.16923342 -0.00644889 2.33846685 -0.01289778 3.54313159 -0.0195421 C4.81841007 -0.01644489 6.09368856 -0.01334769 7.40761185 -0.01015663 C8.78334911 -0.0138948 10.15908425 -0.01849699 11.53481603 -0.02388728 C15.31010387 -0.03611222 19.08530307 -0.03585741 22.86060619 -0.03349853 C26.93436356 -0.03309023 31.00809256 -0.04413078 35.0818367 -0.05361366 C43.06141419 -0.07022212 51.04096214 -0.07572315 59.02055547 -0.07683842 C65.50774555 -0.07778902 71.99492589 -0.08189989 78.48211288 -0.08823967 C96.8787468 -0.10585206 115.27535738 -0.1150786 133.67199978 -0.11357872 C135.15945509 -0.11345885 135.15945509 -0.11345885 136.67695999 -0.11333656 C138.16623382 -0.11321392 138.16623382 -0.11321392 139.68559399 -0.1130888 C155.77368148 -0.11227602 171.86167532 -0.13141176 187.94973573 -0.1596133 C204.47302197 -0.18834894 220.99626255 -0.2021532 237.5195744 -0.20042574 C246.79445554 -0.19976205 256.06923852 -0.20524514 265.34409714 -0.22678185 C273.24151501 -0.24500264 281.13879024 -0.24933365 289.03622004 -0.235763 C293.06383044 -0.22923772 297.09116724 -0.22910003 301.11875153 -0.2464695 C304.81017956 -0.26222517 308.50111762 -0.25931162 312.19253388 -0.24190123 C314.15129846 -0.23739169 316.11007838 -0.25246916 318.06878352 -0.26838052 C328.41091031 -0.18774517 336.64344956 2.00013308 344.31563187 9.19086266 C350.47980959 16.43719603 352.21793764 24.10998017 352.25044632 33.35541344 C352.25701752 34.16898811 352.26358871 34.98256279 352.27035904 35.82079124 C352.29005117 38.51055565 352.30174736 41.20026425 352.31172562 43.89008141 C352.31580114 44.81169941 352.31987667 45.73331741 352.3240757 46.68286324 C352.34492198 51.56378262 352.35922828 56.44467404 352.36861038 61.32562828 C352.37965402 66.3490638 352.41403443 71.37205385 352.45378208 76.39533234 C352.48002189 80.27315617 352.48830888 84.15087519 352.49189186 88.02877998 C352.4967411 89.87940914 352.50830728 91.73003414 352.52692986 93.58057594 C352.64903509 106.52167325 352.18662006 116.69512336 342.87422562 126.56586266 C339.40338885 129.82588938 335.90957085 132.51324945 331.07344437 133.25726891 C331.2347937 132.59974129 331.39614304 131.94221367 331.56238174 131.26476097 C332.19427842 127.54618683 332.23699872 123.89713377 332.25044632 120.13739586 C332.25701752 119.33342873 332.26358871 118.52946159 332.27035904 117.70113182 C332.29001463 115.04927018 332.30173808 112.39746499 332.31172562 109.74555016 C332.31580114 108.83588179 332.31987667 107.92621342 332.3240757 106.98897934 C332.34490467 102.17289396 332.35921941 97.35683679 332.36861038 92.54071617 C332.37966098 87.58568815 332.41405446 82.63111088 332.45378208 77.67624187 C332.48002177 73.84903229 332.48830878 70.0219289 332.49189186 66.1946373 C332.49673974 64.3691275 332.50830197 62.54362187 332.52692986 60.71820068 C332.64840641 48.02412479 332.23036557 37.74722928 323.06953812 28.01508141 C316.5239587 22.25087253 309.90506277 20.13282112 301.28441143 20.13142776 C300.12043565 20.12882002 298.95645987 20.12621227 297.7572121 20.1235255 C296.48270995 20.12575622 295.20820781 20.12798694 293.89508438 20.13028526 C292.52418573 20.12913295 291.15328739 20.12754469 289.7823897 20.12555802 C286.01607802 20.12137988 282.24979164 20.12344857 278.48347986 20.12654424 C274.42142017 20.12880424 270.35936488 20.12531573 266.29730606 20.12256432 C258.3403278 20.11811421 250.38335896 20.11907969 242.42638033 20.12197696 C235.96104809 20.1242338 229.49571849 20.12454229 223.03038597 20.12345314 C222.11079838 20.12329991 221.19121079 20.12314667 220.24375691 20.1229888 C218.3757435 20.12266908 216.5077301 20.12234487 214.63971669 20.12201621 C197.11756862 20.11916368 179.59542577 20.12244497 162.07327855 20.12781657 C147.03093212 20.13228515 131.9885934 20.1315078 116.9462471 20.12689781 C99.48595937 20.12154933 82.02567622 20.11943756 64.56538779 20.12251008 C62.70448752 20.12282863 60.84358726 20.123143 58.982687 20.12345314 C58.06704017 20.12360742 57.15139335 20.12376169 56.20799966 20.12392064 C49.74819355 20.12478492 43.28839033 20.12332485 36.82858467 20.12097359 C28.95955714 20.11817239 21.09053959 20.11892067 13.2215132 20.12425433 C9.20487381 20.12688689 5.18825107 20.12790389 1.17161179 20.12460518 C-2.50273278 20.12163316 -6.1770452 20.12325025 -9.85138684 20.12858273 C-11.81561351 20.13023515 -13.7798424 20.12695741 -15.74406677 20.1235255 C-16.90543481 20.12613325 -18.06680284 20.12874099 -19.26336384 20.13142776 C-20.76982577 20.13167129 -20.76982577 20.13167129 -22.30672127 20.13191974 C-24.67093712 20.24503853 -26.66686551 20.58166847 -28.92655563 21.25726891 C-27.24594044 13.78786806 -22.14973078 8.47218037 -15.86405563 4.38226891 C-10.82070393 1.33280044 -5.87950959 0.00822647 0 0 Z " fill="#DF910B" transform="translate(159.92655563354492,284.74273109436035)"/>
<path d="M0 0 C1.58590187 -0.00824799 1.58590187 -0.00824799 3.20384216 -0.0166626 C4.93553398 0.00490906 4.93553398 0.00490906 6.70220947 0.0269165 C7.9219899 0.0263324 9.14177032 0.02574829 10.39851379 0.02514648 C13.7394678 0.02745512 17.07943203 0.04750807 20.42021084 0.07544231 C23.91288268 0.10045501 27.40556784 0.10279784 30.89831543 0.10754395 C37.51047038 0.11997418 44.12236066 0.15279619 50.73439908 0.1929419 C58.26272714 0.23765832 65.79106787 0.25964628 73.31949568 0.27972364 C88.80431656 0.32152898 104.28887341 0.39188168 119.77349854 0.48101807 C119.87336811 6.36679294 119.94543401 12.25206022 119.9932251 18.13848877 C120.01317572 20.13532112 120.04034625 22.13209631 120.07525635 24.12872314 C120.39704222 43.0241786 118.04480143 58.13435338 104.74615479 72.60211182 C95.19029734 81.7038295 82.51882991 87.55924186 69.21099854 87.60601807 C68.07662354 87.56476807 66.94224854 87.52351807 65.77349854 87.48101807 C67.52944454 83.96912607 72.02053412 82.83026568 75.49420166 81.22320557 C79.27561287 79.41384196 81.90855764 77.51291356 84.77349854 74.48101807 C85.43349854 74.48101807 86.09349854 74.48101807 86.77349854 74.48101807 C87.04677979 73.89062744 87.32006104 73.30023682 87.60162354 72.69195557 C88.73542037 70.55285887 89.97001046 68.95182916 91.52349854 67.10601807 C97.57520033 59.2254236 101.7035102 48.99500389 102.08990479 39.05914307 C102.13179932 38.03433838 102.17369385 37.00953369 102.21685791 35.95367432 C102.25617432 34.89019775 102.29549072 33.82672119 102.33599854 32.73101807 C102.40077393 31.1126001 102.40077393 31.1126001 102.46685791 29.46148682 C102.57278843 26.80145378 102.67486275 24.14132995 102.77349854 21.48101807 C88.96835921 21.26326823 75.16502716 21.12791907 61.35813904 21.09498692 C54.94526569 21.0771607 48.53511827 21.0319819 42.12310791 20.92218018 C35.92356227 20.81705817 29.72755396 20.78654681 23.52719116 20.80567741 C21.17336347 20.80023004 18.81943474 20.76882429 16.46633911 20.70987129 C0.86465732 20.29789073 0.86465732 20.29789073 -12.36778259 27.68111324 C-14.93999715 30.22356577 -17.34125367 32.85584227 -19.6577301 35.63252068 C-21.97668092 38.36496125 -24.52507695 40.803851 -27.10150146 43.29351807 C-28.81256984 45.01997836 -30.52099175 46.74906634 -32.22650146 48.48101807 C-37.48986522 53.82305691 -42.75826793 59.04884825 -48.45355225 63.9307251 C-50.98631424 66.14540957 -53.31441505 68.51028363 -55.66400146 70.91851807 C-57.1663745 72.45759029 -58.68176954 73.98446491 -60.22650146 75.48101807 C-60.55650146 75.48101807 -60.88650146 75.48101807 -61.22650146 75.48101807 C-63.30437765 56.5243938 -63.30437765 56.5243938 -58.83587646 50.66070557 C-56.42586997 48.09802897 -53.7739676 45.90857899 -50.96478271 43.79840088 C-43.04046888 37.79283944 -36.19390822 30.53874305 -29.22650146 23.48101807 C-16.90476729 10.99955771 -16.90476729 10.99955771 -10.94525146 5.98101807 C-9.13261312 4.47015594 -9.13261312 4.47015594 -7.44573593 2.4173317 C-4.73428889 0.05155559 -3.54948634 -0.01425497 0 0 Z " fill="#0183E0" transform="translate(257.22650146484375,418.51898193359375)"/>
<path d="M0 0 C26.46612215 -0.88438775 51.19969093 5.76256208 71 24.0625 C73.03610981 26.01030758 75.01928982 27.99442735 77 30 C77.68707031 30.68835938 78.37414062 31.37671875 79.08203125 32.0859375 C97.01720102 51.2761643 102.72677117 76.22204983 102.390625 101.6015625 C102.38313594 103.30218835 102.37745568 105.00282301 102.37347412 106.70346069 C102.35842687 111.11264187 102.3193345 115.52126968 102.2746582 119.93023682 C102.23324541 124.45601929 102.21536638 128.98189392 102.1953125 133.5078125 C102.15281237 142.33882008 102.08264301 151.16927681 102 160 C96.39 160 90.78 160 85 160 C84.970271 156.58756958 84.970271 156.58756958 84.93994141 153.10620117 C84.87276391 145.55446301 84.79512983 138.00285771 84.71247292 130.45127392 C84.66271872 125.87680731 84.61638839 121.3023615 84.578125 116.7277832 C84.54100652 112.30562959 84.49457793 107.8836593 84.44193649 103.4616642 C84.4235326 101.78218137 84.40837413 100.10265946 84.39665604 98.42311668 C84.22276804 74.34185305 77.9233391 52.53432542 62 34 C61.49339844 33.3503125 60.98679687 32.700625 60.46484375 32.03125 C48.22555648 16.87498272 27.33402453 5.58139897 8.1328125 2.546875 C6.08979283 2.35105842 4.04505191 2.17330948 2 2 C1.34 1.34 0.68 0.68 0 0 Z " fill="#0184E1" transform="translate(209,76)"/>
<path d="M0 0 C3.5 0.625 3.5 0.625 5.703125 2.51953125 C8.29216973 6.99407595 7.93623116 10.86986355 7.75 15.9375 C7.73195313 16.86884766 7.71390625 17.80019531 7.6953125 18.75976562 C7.64834888 21.04924197 7.58269475 23.33658184 7.5 25.625 C7.97832275 25.3168335 8.45664551 25.00866699 8.94946289 24.69116211 C11.14164178 23.29469628 13.35134314 21.92869866 15.5625 20.5625 C16.69075195 19.83450195 16.69075195 19.83450195 17.84179688 19.09179688 C21.72445498 16.7218627 23.78396938 15.6100827 28.4375 15.70703125 C31.5 16.625 31.5 16.625 33.4375 18.375 C34.75797421 21.17129833 35.09607441 22.57011866 34.5 25.625 C31.03773213 29.59284857 27.45775111 32.00629104 22.8125 34.4375 C21.67425781 35.04207031 20.53601563 35.64664063 19.36328125 36.26953125 C16.5 37.625 16.5 37.625 14.5 37.625 C14.5 38.285 14.5 38.945 14.5 39.625 C15.37269531 39.88410156 16.24539063 40.14320313 17.14453125 40.41015625 C20.51883063 41.63181761 23.18302735 43.11399263 26.1875 45.0625 C27.11949219 45.65933594 28.05148437 46.25617188 29.01171875 46.87109375 C32.97441658 49.66426694 32.97441658 49.66426694 34.5 51.625 C34.43273404 55.39189361 34.32032733 57.71678045 31.75 60.5625 C29.05917003 61.83316971 27.45594559 61.85396813 24.5 61.625 C22.37182617 60.70703125 22.37182617 60.70703125 20.29296875 59.4375 C19.54208984 58.98632812 18.79121094 58.53515625 18.01757812 58.0703125 C17.24865234 57.59335937 16.47972656 57.11640625 15.6875 56.625 C14.50510742 55.90957031 14.50510742 55.90957031 13.29882812 55.1796875 C11.35970104 54.00445896 9.42732393 52.81945162 7.5 51.625 C7.52618408 52.23496826 7.55236816 52.84493652 7.5793457 53.47338867 C7.68365719 56.25282758 7.74842982 59.03185439 7.8125 61.8125 C7.85439453 62.77220703 7.89628906 63.73191406 7.93945312 64.72070312 C8.06323446 71.87526407 8.06323446 71.87526407 5.140625 75.765625 C2.5 77.625 2.5 77.625 -0.0625 78.1875 C-3.23810981 77.45466697 -4.45272307 76.11097913 -6.5 73.625 C-7.70029908 71.22440183 -7.61459743 69.73139351 -7.59765625 67.0546875 C-7.59443359 66.15878906 -7.59121094 65.26289063 -7.58789062 64.33984375 C-7.57951172 63.40269531 -7.57113281 62.46554687 -7.5625 61.5 C-7.55798828 60.55511719 -7.55347656 59.61023438 -7.54882812 58.63671875 C-7.53702357 56.29941613 -7.52055759 53.96223939 -7.5 51.625 C-7.98355957 51.92792969 -8.46711914 52.23085938 -8.96533203 52.54296875 C-11.17689402 53.9175949 -13.40056456 55.27131396 -15.625 56.625 C-16.38554687 57.10195313 -17.14609375 57.57890625 -17.9296875 58.0703125 C-22.20089514 60.64776538 -25.3464193 62.51756292 -30.5 61.625 C-33.08721535 59.24203849 -34.27200076 57.53699697 -35.125 54.125 C-33.90849818 49.2589927 -29.5165234 47.25900353 -25.5 44.75390625 C-16.9139839 39.625 -16.9139839 39.625 -14.5 39.625 C-14.5 38.965 -14.5 38.305 -14.5 37.625 C-15.79164063 37.23634766 -15.79164063 37.23634766 -17.109375 36.83984375 C-20.59221426 35.5919601 -23.55842643 34.05192426 -26.75 32.1875 C-27.78640625 31.59066406 -28.8228125 30.99382812 -29.890625 30.37890625 C-32.5 28.625 -32.5 28.625 -34.5 25.625 C-34.36714936 21.90518216 -34.25057131 19.514566 -31.8125 16.625 C-28.56947168 15.22260937 -26.93585971 15.763056 -23.5 16.625 C-20.60784489 17.97953116 -17.87365715 19.56464908 -15.125 21.1875 C-14.38894531 21.61224609 -13.65289062 22.03699219 -12.89453125 22.47460938 C-11.09160301 23.51656141 -9.29512947 24.56966854 -7.5 25.625 C-7.52094727 25.04532471 -7.54189453 24.46564941 -7.56347656 23.8684082 C-7.64696807 21.22495076 -7.69876153 18.5817712 -7.75 15.9375 C-7.80027344 14.56948242 -7.80027344 14.56948242 -7.8515625 13.17382812 C-7.91428539 8.86162963 -7.90033503 6.31688336 -5.703125 2.51953125 C-3.5 0.625 -3.5 0.625 0 0 Z " fill="#EAF4F9" transform="translate(414.5,313.375)"/>
<path d="M0 0 C2.54942535 2.18780473 3.84962804 3.91386428 4.31640625 7.28540039 C4.39375661 9.97205323 4.3487027 12.62664758 4.25 15.3125 C4.23195313 16.24384766 4.21390625 17.17519531 4.1953125 18.13476562 C4.14834888 20.42424197 4.08269475 22.71158184 4 25 C4.47832275 24.6918335 4.95664551 24.38366699 5.44946289 24.06616211 C7.64164178 22.66969628 9.85134314 21.30369866 12.0625 19.9375 C13.19075195 19.20950195 13.19075195 19.20950195 14.34179688 18.46679688 C18.22445498 16.0968627 20.28396938 14.9850827 24.9375 15.08203125 C28 16 28 16 29.9375 17.75 C31.25797421 20.54629833 31.59607441 21.94511866 31 25 C27.53773213 28.96784857 23.95775111 31.38129104 19.3125 33.8125 C18.17425781 34.41707031 17.03601563 35.02164063 15.86328125 35.64453125 C13 37 13 37 11 37 C11 37.66 11 38.32 11 39 C11.87269531 39.25910156 12.74539063 39.51820313 13.64453125 39.78515625 C17.01883063 41.00681761 19.68302735 42.48899263 22.6875 44.4375 C23.61949219 45.03433594 24.55148437 45.63117188 25.51171875 46.24609375 C29.47441658 49.03926694 29.47441658 49.03926694 31 51 C30.93362862 54.71679736 30.75197167 57.07449641 28.375 60 C24.9137105 61.45738505 22.6479524 60.78548043 19 60 C15.578125 58.1875 15.578125 58.1875 12.25 56 C7.84328884 53.08560763 7.84328884 53.08560763 3 51 C3.02094727 51.64549805 3.04189453 52.29099609 3.06347656 52.95605469 C3.14674205 55.88721068 3.19869206 58.81811777 3.25 61.75 C3.30027344 63.27367187 3.30027344 63.27367187 3.3515625 64.828125 C3.45059776 72.35480447 3.45059776 72.35480447 1.13671875 75.66796875 C-1.60905378 77.37968435 -2.82299401 77.69739156 -6 77 C-8.640625 75.140625 -8.640625 75.140625 -11 72 C-11.61319898 68.37621345 -11.47235738 64.84946367 -11.3125 61.1875 C-11.28994141 60.20845703 -11.26738281 59.22941406 -11.24414062 58.22070312 C-11.18539727 55.81222545 -11.10332129 53.40690922 -11 51 C-11.48355957 51.30292969 -11.96711914 51.60585938 -12.46533203 51.91796875 C-14.67689402 53.2925949 -16.90056456 54.64631396 -19.125 56 C-19.88554687 56.47695313 -20.64609375 56.95390625 -21.4296875 57.4453125 C-25.70089514 60.02276538 -28.8464193 61.89256292 -34 61 C-36.58721535 58.61703849 -37.77200076 56.91199697 -38.625 53.5 C-37.40849818 48.6339927 -33.0165234 46.63400353 -29 44.12890625 C-20.4139839 39 -20.4139839 39 -18 39 C-18 38.34 -18 37.68 -18 37 C-19.27423828 36.61908203 -19.27423828 36.61908203 -20.57421875 36.23046875 C-24.25500587 34.90840724 -27.43259907 33.27863666 -30.8125 31.3125 C-31.95332031 30.66925781 -33.09414063 30.02601563 -34.26953125 29.36328125 C-37 27 -37 27 -38.015625 23.41796875 C-38 20 -38 20 -35.9375 17 C-33 15 -33 15 -30.33984375 15.08984375 C-25.99647098 16.27347633 -22.4832041 18.2845549 -18.625 20.5625 C-17.88894531 20.98724609 -17.15289062 21.41199219 -16.39453125 21.84960938 C-14.59160301 22.89156141 -12.79512947 23.94466854 -11 25 C-11.02094727 24.38479492 -11.04189453 23.76958984 -11.06347656 23.13574219 C-11.14677017 20.34066191 -11.19870013 17.54584285 -11.25 14.75 C-11.30027344 13.29787109 -11.30027344 13.29787109 -11.3515625 11.81640625 C-11.45026176 4.66071019 -11.45026176 4.66071019 -9.203125 1.36328125 C-5.92559762 -0.6648341 -3.76756767 -0.60550195 0 0 Z " fill="#EAF4FA" transform="translate(324,314)"/>
<path d="M0 0 C1.6965332 1.19458008 1.6965332 1.19458008 3 3 C3.34057617 5.4519043 3.34057617 5.4519043 3.29296875 8.32421875 C3.2784668 9.86625977 3.2784668 9.86625977 3.26367188 11.43945312 C3.23853516 12.51130859 3.21339844 13.58316406 3.1875 14.6875 C3.16719727 16.31268555 3.16719727 16.31268555 3.14648438 17.97070312 C3.11110643 20.64763405 3.06174189 23.32356838 3 26 C3.50861572 25.66154053 4.01723145 25.32308105 4.54125977 24.97436523 C6.86895856 23.44168381 9.2150094 21.93967442 11.5625 20.4375 C12.36236328 19.90447266 13.16222656 19.37144531 13.98632812 18.82226562 C17.97689185 16.29762327 20.1462917 14.98907657 24.96875 15.05078125 C28 16 28 16 29.9375 17.75 C31.30126162 20.63796579 31.74992617 21.85031009 31 25 C26.44058392 30.55255622 19.39400786 34.00976747 13 37 C12.34 37 11.68 37 11 37 C11 37.66 11 38.32 11 39 C11.69867188 39.25910156 12.39734375 39.51820313 13.1171875 39.78515625 C16.28181461 41.11875927 19.15825224 42.708756 22.125 44.4375 C23.15882813 45.03433594 24.19265625 45.63117188 25.2578125 46.24609375 C29.42312642 48.91023328 29.42312642 48.91023328 31 51 C30.93362862 54.71679736 30.75197167 57.07449641 28.375 60 C24.9137105 61.45738505 22.6479524 60.78548043 19 60 C15.578125 58.1875 15.578125 58.1875 12.25 56 C7.84328884 53.08560763 7.84328884 53.08560763 3 51 C3.02094727 51.64549805 3.04189453 52.29099609 3.06347656 52.95605469 C3.14674205 55.88721068 3.19869206 58.81811777 3.25 61.75 C3.30027344 63.27367187 3.30027344 63.27367187 3.3515625 64.828125 C3.45015732 72.32133145 3.45015732 72.32133145 1.20703125 75.703125 C-1 77 -1 77 -4.5625 77 C-8.39430556 75.88529293 -9.06116498 75.34529842 -11 72 C-11.34057617 69.61816406 -11.34057617 69.61816406 -11.29296875 67.015625 C-11.28330078 66.08105469 -11.27363281 65.14648438 -11.26367188 64.18359375 C-11.23853516 63.21550781 -11.21339844 62.24742187 -11.1875 61.25 C-11.16719727 59.77466797 -11.16719727 59.77466797 -11.14648438 58.26953125 C-11.11118726 55.84579585 -11.06188054 53.42317855 -11 51 C-11.99 51.63808594 -12.98 52.27617187 -14 52.93359375 C-15.33286315 53.76897981 -16.66622334 54.60357322 -18 55.4375 C-18.64839844 55.85837891 -19.29679687 56.27925781 -19.96484375 56.71289062 C-24.7025981 59.6446693 -28.39543865 60.87425664 -34 61 C-36.76836493 58.64688981 -37.74899222 57.00403113 -38.625 53.5 C-37.40849818 48.6339927 -33.0165234 46.63400353 -29 44.12890625 C-20.4139839 39 -20.4139839 39 -18 39 C-18 38.34 -18 37.68 -18 37 C-18.84949219 36.7525 -19.69898438 36.505 -20.57421875 36.25 C-24.28330321 34.89662825 -27.48941768 33.0916094 -30.8125 31 C-31.39708984 30.64421875 -31.98167969 30.2884375 -32.58398438 29.921875 C-36.87008929 27.25982143 -36.87008929 27.25982143 -38 25 C-38.375 22.125 -38.375 22.125 -38 19 C-35.875 16.5625 -35.875 16.5625 -33 15 C-27.41043379 15.24659851 -23.31877597 17.79121998 -18.625 20.5625 C-17.88894531 20.98724609 -17.15289062 21.41199219 -16.39453125 21.84960938 C-14.59160301 22.89156141 -12.79512947 23.94466854 -11 25 C-11.02094727 24.38479492 -11.04189453 23.76958984 -11.06347656 23.13574219 C-11.14677017 20.34066191 -11.19870013 17.54584285 -11.25 14.75 C-11.30027344 13.29787109 -11.30027344 13.29787109 -11.3515625 11.81640625 C-11.45021578 4.66404375 -11.45021578 4.66404375 -9.20703125 1.35546875 C-5.99658915 -0.6162541 -3.68575395 -0.46909596 0 0 Z " fill="#EAF4FB" transform="translate(230,314)"/>
<path d="M0 0 C0 0.66 0 1.32 0 2 C-0.61746094 2.20753906 -1.23492187 2.41507813 -1.87109375 2.62890625 C-12.08236109 6.34350731 -18.55995901 11.56901925 -24.4921875 20.66796875 C-29.06647109 30.77642445 -29.46510937 41.13553575 -29.51171875 52.046875 C-29.52860657 53.5543154 -29.54676216 55.06174208 -29.56611633 56.56915283 C-29.61317806 60.49478867 -29.64326847 64.42036885 -29.66955566 68.34619141 C-29.69958523 72.36892691 -29.7460372 76.39147128 -29.79101562 80.4140625 C-29.87654871 88.27596244 -29.94259117 96.13784435 -30 104 C-35.61 104 -41.22 104 -47 104 C-47.11354729 94.83690877 -47.20502759 85.67429467 -47.25906086 76.5106554 C-47.28501114 72.25431215 -47.3201374 67.99848054 -47.37719727 63.74243164 C-47.4320441 59.6250738 -47.46152968 55.50820398 -47.47438622 51.39050865 C-47.48353273 49.82979348 -47.5013903 48.26910108 -47.52865028 46.70859718 C-47.73893606 34.15666191 -46.07565922 23.50022073 -37.75 13.5625 C-33.57674479 9.29927411 -29.22813927 5.86979384 -24 3 C-23.4121875 2.66097656 -22.824375 2.32195312 -22.21875 1.97265625 C-15.41297739 -1.26605572 -7.34238321 -0.2405878 0 0 Z " fill="#0084E0" transform="translate(207,132)"/>
<path d="M0 0 C18.08272856 -0.64903113 32.15520632 0.93286098 46.47265625 13.1015625 C55.35166425 21.49140979 60.42257352 31.05287018 63 43 C63 44.98 63 46.96 63 49 C57.39 49 51.78 49 46 49 C45.46375 46.586875 44.9275 44.17375 44.375 41.6875 C41.07602655 28.04010941 34.36519753 16.96948744 22.5 9.125 C15.24925853 4.80052196 8.24452554 2.62218674 0 1 C0 0.67 0 0.34 0 0 Z " fill="#0184E1" transform="translate(314,236)"/>
<path d="M0 0 C6.6 0 13.2 0 20 0 C20 0.33 20 0.66 20 1 C17.03 1 14.06 1 11 1 C11 1.66 11 2.32 11 3 C7.37 2.34 3.74 1.68 0 1 C0 0.67 0 0.34 0 0 Z " fill="#088CE7" transform="translate(314,236)"/>
</svg>
